#!OML:ASF X:\für Bonn\!DataBase\2005_08_10_Bjorn_Final\c3d\bjorn.ASF
:FULLY-SPECIFIED
:DEGREES
216
root -0.0627697 18.3589 -1.23818 576.034 83.7451 -138.33
lowerback -0.263824 3.24663 -5.6719
upperback 12.1913 6.37702 -5.54477
thorax 13.6082 3.22274 -2.12204
lowerneck 7.23482 -5.29809 1.3273
upperneck 16.4142 -7.56817 11.6175
head 4.1247 -2.86101 3.28491
rclavicle 5.56597e-014 -4.45278e-014
rhumerus -28.464 -22.0096 -79.3114
rradius 29.5888
rwrist 9.96076
rhand -9.3295 16.5397
rfingers 7.12502
rthumb 16.6292 -12.7679
lclavicle 5.56597e-014 -4.45278e-014
lhumerus 3.03642 7.15053 67.2154
lradius 51.7787
lwrist -12.8693
lhand -34.737 -16.6122
lfingers 7.12502
lthumb -7.89095 13.2205
rfemur -32.5741 -12.1468 13.6453
rtibia 33.2794
rfoot 4.15378 10.7966
rtoes -18.6145
lfemur 0.237002 -7.36144 -15.1769
ltibia 39.6887
lfoot -27.0133 -0.974223
ltoes -13.4755
217
root 0.00575904 18.3492 -1.21995 575.002 83.8243 -139.531
lowerback -0.353689 3.25066 -5.61887
upperback 12.1655 6.38631 -5.5742
thorax 13.6428 3.23328 -2.17664
lowerneck 7.2755 -5.30388 1.44264
upperneck 16.2985 -7.5545 11.5872
head 4.07753 -2.8568 3.2578
rclavicle -4.92986e-014 -2.22639e-014
rhumerus -28.5225 -22.1257 -79.2683
rradius 29.5801
rwrist 10.1309
rhand -9.37865 16.5739
rfingers 7.12502
rthumb 16.5819 -12.7377
lclavicle -4.92986e-014 -2.22639e-014
lhumerus 2.8612 7.16817 67.1046
lradius 51.7467
lwrist -12.8215
lhand -34.6886 -16.5441
lfingers 7.12502
lthumb -7.8442 13.2904
rfemur -32.3637 -12.2229 13.5668
rtibia 32.8984
rfoot 4.4403 10.3909
rtoes -18.5977
lfemur 0.354767 -7.29096 -15.2255
ltibia 39.5792
lfoot -27.1172 -1.17815
ltoes -13.3129
218
root 0.0734217 18.3406 -1.19962 573.965 83.8618 -140.747
lowerback -0.402673 3.25721 -5.54554
upperback 12.1162 6.38658 -5.59407
thorax 13.6226 3.2413 -2.23586
lowerneck 7.36006 -5.31177 1.56249
upperneck 16.1588 -7.53791 11.5666
head 4.01596 -2.85289 3.23444
rclavicle 1.59028e-014 -1.90833e-014
rhumerus -28.653 -22.2081 -79.2292
rradius 29.6392
rwrist 10.1398
rhand -9.41916 16.5606
rfingers 7.12502
rthumb 16.5429 -12.7542
lclavicle 1.59028e-014 -1.90833e-014
lhumerus 2.62133 7.12488 66.973
lradius 51.7196
lwrist -12.7662
lhand -34.6242 -16.5142
lfingers 7.12502
lthumb -7.78209 13.3226
rfemur -32.1662 -12.294 13.5114
rtibia 32.574
rfoot 4.71181 9.9685
rtoes -18.4214
lfemur 0.462951 -7.24367 -15.2394
ltibia 39.4421
lfoot -27.2001 -1.33069
ltoes -13.3484
219
root 0.14232 18.3348 -1.17952 572.861 83.9255 -142.031
lowerback -0.481707 3.25133 -5.5014
upperback 12.0951 6.37953 -5.607
thorax 13.6523 3.24152 -2.27009
lowerneck 7.38388 -5.32693 1.68591
upperneck 16.0212 -7.53289 11.4858
head 3.96361 -2.85656 3.18962
rclavicle 2.54444e-014 -6.67916e-014
rhumerus -28.7025 -22.2103 -79.2137
rradius 29.6743
rwrist 10.1442
rhand -9.47152 16.5462
rfingers 7.12502
rthumb 16.4925 -12.7728
lclavicle 2.54444e-014 -6.67916e-014
lhumerus 2.39827 7.10439 66.8398
lradius 51.6579
lwrist -12.6715
lhand -34.6296 -16.3208
lfingers 7.12502
lthumb -7.78728 13.5158
rfemur -31.993 -12.3306 13.433
rtibia 32.3078
rfoot 4.91914 9.60682
rtoes -18.317
lfemur 0.599288 -7.16892 -15.2678
ltibia 39.2573
lfoot -27.2596 -1.55547
ltoes -13.2749
220
root 0.212116 18.3279 -1.15786 571.785 83.9977 -143.277
lowerback -0.519289 3.25808 -5.44267
upperback 12.059 6.3828 -5.62705
thorax 13.6401 3.24987 -2.32182
lowerneck 7.40961 -5.33944 1.78451
upperneck 15.9262 -7.53042 11.4423
head 3.92607 -2.85792 3.16071
rclavicle -7.95139e-015 -4.45278e-014
rhumerus -28.7601 -22.3409 -79.1718
rradius 29.6551
rwrist 10.2311
rhand -9.51347 16.5599
rfingers 7.12502
rthumb 16.4521 -12.7625
lclavicle -7.95139e-015 -4.45278e-014
lhumerus 2.13611 7.05595 66.7196
lradius 51.6163
lwrist -12.5628
lhand -34.5496 -16.096
lfingers 7.12502
lthumb -7.71006 13.7434
rfemur -31.8199 -12.3588 13.3482
rtibia 32.0922
rfoot 5.0914 9.29416
rtoes -18.1997
lfemur 0.768786 -7.08402 -15.2951
ltibia 39.0502
lfoot -27.302 -1.74738
ltoes -13.282
